<svg xmlns="http://www.w3.org/2000/svg" xmlns:xlink="http://www.w3.org/1999/xlink"
  viewBox="0 0 400 400" width="400" height="400" preserveAspectRatio="xMidYMid meet"
  style="width: 100%; height: 100%; transform: translate3d(0px, 0px, 0px); content-visibility: visible;">
  <defs>
    <clipPath id="__lottie_element_101">
      <rect width="400" height="400" x="0" y="0"></rect>
    </clipPath>
    <clipPath id="__lottie_element_103">
      <path d="M0,0 L400,0 L400,400 L0,400z"></path>
    </clipPath>
  </defs>
  <g clip-path="url(#__lottie_element_101)">
    <g transform="matrix(1.2599999904632568,0,0,1.2599999904632568,200,215.39999389648438)"
      opacity="1" style="display: block;">
      <g opacity="1" transform="matrix(4,0,0,4,0,0)">
        <path fill="rgb(255,246,119)" fill-opacity="1"
          d=" M0,-22.5 C12.472940444946289,-22.5 22.600000381469727,-12.417750358581543 22.600000381469727,0 C22.600000381469727,12.417750358581543 12.472940444946289,22.5 0,22.5 C-12.472940444946289,22.5 -22.600000381469727,12.417750358581543 -22.600000381469727,0 C-22.600000381469727,-12.417750358581543 -12.472940444946289,-22.5 0,-22.5z"></path>
      </g>
    </g>
    <g class="O" transform="matrix(1,0,0,1,199.92599487304688,209.7519989013672)" opacity="1"
      style="display: block;">
      <g class="O" opacity="1" transform="matrix(4,0,0,4,0,0)">
        <path stroke-linecap="round" stroke-linejoin="miter" fill-opacity="0" stroke-miterlimit="4"
          stroke="rgb(1,131,199)" stroke-opacity="1" stroke-width="3"
          d=" M-4.485000133514404,-12.838000297546387 C-4.640999794006348,-12.838000297546387 -4.728000164031982,-12.838000297546387 -4.728000164031982,-12.838000297546387 C-4.728000164031982,-12.838000297546387 -4.728000164031982,-13.48799991607666 -4.728000164031982,-13.48799991607666 C-4.728000164031982,-10.887999534606934 -5.828000068664551,-8.387999534606934 -7.7779998779296875,-6.638000011444092 C-10.378000259399414,-4.3379998207092285 -11.928000450134277,-0.8880000114440918 -11.628000259399414,2.9119999408721924 C-11.178000450134277,8.612000465393066 -6.478000164031982,13.26200008392334 -0.7279999852180481,13.612000465393066 C6.072000026702881,14.062000274658203 11.67199993133545,8.661999702453613 11.67199993133545,2.01200008392334 C11.67199993133545,-1.437999963760376 10.17199993133545,-4.48799991607666 7.771999835968018,-6.638000011444092 C5.822000026702881,-8.437999725341797 4.622000217437744,-10.937999725341797 4.622000217437744,-13.637999534606934"></path>
      </g>
    </g>
    <g class="O" transform="matrix(1,0,0,1,199.60000610351562,139.8000030517578)" opacity="1"
      style="display: block;">
      <g class="O" opacity="1" transform="matrix(4,0,0,4,0,0)">
        <path stroke-linecap="round" stroke-linejoin="miter" fill-opacity="0" stroke-miterlimit="4"
          stroke="rgb(1,131,199)" stroke-opacity="1" stroke-width="3"
          d=" M-4.650000095367432,4.650000095367432 C-4.650000095367432,4.650000095367432 -4.650000095367432,0 -4.650000095367432,0 C-4.650000095367432,-2.549999952316284 -2.549999952316284,-4.650000095367432 0,-4.650000095367432 C2.549999952316284,-4.650000095367432 4.650000095367432,-2.549999952316284 4.650000095367432,0 C4.650000095367432,2.549999952316284 4.650000095367432,4.650000095367432 4.650000095367432,4.650000095367432 C4.650000095367432,4.650000095367432 -4.650000095367432,4.650000095367432 -4.650000095367432,4.650000095367432z"></path>
      </g>
    </g>
    <g transform="matrix(1,0,0,1,200,58.483001708984375)" opacity="1" style="display: block;">
      <g opacity="1" transform="matrix(4,0,0,4,0,0)">
        <path stroke-linecap="round" stroke-linejoin="miter" fill-opacity="0" stroke-miterlimit="4"
          stroke="rgb(1,131,199)" stroke-opacity="1" stroke-width="3"
          d=" M0,10.869000434875488 C0,13.427000045776367 0,15.100000381469727 0,15.100000381469727"></path>
      </g>
    </g>
    <g clip-path="url(#__lottie_element_103)" style="display: block;"
      transform="matrix(1,0,0,1,0,0)" opacity="1">
      <g
        transform="matrix(0.8230273127555847,-0.5680017471313477,0.5680017471313477,0.8230273127555847,190.03306579589844,199.57183837890625)"
        opacity="1" style="display: block;">
        <g opacity="1" transform="matrix(1,0,0,1,0,0)">
          <path fill="rgb(255,0,0)" fill-opacity="1"
            d=" M-106.51000213623047,34 C-112.25399780273438,34 -118.02899932861328,34 -123.36299896240234,34"></path>
          <path stroke-linecap="round" stroke-linejoin="miter" fill-opacity="0"
            stroke-miterlimit="4" stroke="rgb(1,131,199)" stroke-opacity="1" stroke-width="12"
            d=" M-106.51000213623047,34 C-112.25399780273438,34 -118.02899932861328,34 -123.36299896240234,34"></path>
        </g>
      </g>
      <g transform="matrix(0,-1,1,0,166,217.5)" opacity="1" style="display: block;">
        <g opacity="1" transform="matrix(1,0,0,1,0,0)">
          <path fill="rgb(255,0,0)" fill-opacity="1"
            d=" M-106.51000213623047,34 C-112.25399780273438,34 -118.02899932861328,34 -123.36299896240234,34"></path>
          <path stroke-linecap="round" stroke-linejoin="miter" fill-opacity="0"
            stroke-miterlimit="4" stroke="rgb(1,131,199)" stroke-opacity="1" stroke-width="12"
            d=" M-106.51000213623047,34 C-112.25399780273438,34 -118.02899932861328,34 -123.36299896240234,34"></path>
        </g>
      </g>
      <g
        transform="matrix(-0.7071067690849304,-0.7071067690849304,0.7071067690849304,-0.7071067690849304,176.39234924316406,241.5614013671875)"
        opacity="1" style="display: block;">
        <g opacity="1" transform="matrix(1,0,0,1,0,0)">
          <path fill="rgb(255,0,0)" fill-opacity="1"
            d=" M-106.51000213623047,34 C-112.25399780273438,34 -118.02899932861328,34 -123.36299896240234,34"></path>
          <path stroke-linecap="round" stroke-linejoin="miter" fill-opacity="0"
            stroke-miterlimit="4" stroke="rgb(1,131,199)" stroke-opacity="1" stroke-width="12"
            d=" M-106.51000213623047,34 C-112.25399780273438,34 -118.02899932861328,34 -123.36299896240234,34"></path>
        </g>
      </g>
      <g transform="matrix(-1,0,0,-1,199,251.5)" opacity="1" style="display: block;">
        <g opacity="1" transform="matrix(1,0,0,1,0,0)">
          <path fill="rgb(255,0,0)" fill-opacity="1"
            d=" M-106.51000213623047,34 C-111.96700286865234,34 -117.4520034790039,34 -122.55999755859375,34"></path>
          <path stroke-linecap="round" stroke-linejoin="miter" fill-opacity="0"
            stroke-miterlimit="4" stroke="rgb(1,131,199)" stroke-opacity="1" stroke-width="12"
            d=" M-106.51000213623047,34 C-111.96700286865234,34 -117.4520034790039,34 -122.55999755859375,34"></path>
        </g>
      </g>
      <g transform="matrix(1,0,0,1,201,184)" opacity="1" style="display: block;">
        <g opacity="1" transform="matrix(1,0,0,1,0,0)">
          <path fill="rgb(255,0,0)" fill-opacity="1"
            d=" M-106.51000213623047,34 C-112.25399780273438,34 -118.02899932861328,34 -123.36299896240234,34"></path>
          <path stroke-linecap="round" stroke-linejoin="miter" fill-opacity="0"
            stroke-miterlimit="4" stroke="rgb(1,131,199)" stroke-opacity="1" stroke-width="12"
            d=" M-106.51000213623047,34 C-112.25399780273438,34 -118.02899932861328,34 -123.36299896240234,34"></path>
        </g>
      </g>
    </g>
  </g>
</svg>